<?xml version="1.0" standalone="no"?><!DOCTYPE svg PUBLIC "-//W3C//DTD SVG 1.1//EN" "http://www.w3.org/Graphics/SVG/1.1/DTD/svg11.dtd"><svg class="icon" height="512" viewBox="0 0 1024 1024" version="1.1" xmlns="http://www.w3.org/2000/svg"><path d="M838.068 381.821c-6.834-1.787-14.679-2.951-22.447-2.951h-11.807v39.536H687.461V378.87H336.149v39.536H219.563V378.87h-11.728c-7.612 0-15.457 1.165-22.447 2.951-40.545 10.019-70.215 46.448-70.215 90.255v106.566h83.809c13.282 0 23.613 10.642 23.613 23.613 0 12.506-10.33 23.146-23.613 23.146h-83.809v58.332h83.809c13.282 0 23.613 10.253 23.613 22.991 0 12.893-10.33 23.225-23.613 23.225h-83.809v58.254h83.809a23.487 23.487 0 0 1 23.613 23.535c0 12.582-10.33 23.379-23.613 23.379h-83.809v34.875c0 51.264 41.089 92.974 92.662 92.974h607.786c51.108 0 92.974-41.71 92.974-92.974V472.077c0-43.807-29.982-80.235-70.526-90.255zM549.126 735.54v88.002h-74.41V735.54c-34.098-14.448-57.555-47.769-57.555-86.449 0-52.351 42.254-94.838 94.759-94.838 52.351 0 94.605 42.486 94.605 94.838-0.078 38.681-23.69 72.002-57.399 86.449zM336.149 265.079c0-48.235 38.836-87.303 87.381-87.303h176.238c48.235 0 87.692 39.069 87.692 87.303v113.79h116.353v-113.79c0-112.78-91.187-204.046-204.046-204.046H423.529c-112.547 0-203.967 91.265-203.967 204.046v113.79h116.586v-113.79z" fill="" /></svg>