<?xml version="1.0" standalone="no"?><!DOCTYPE svg PUBLIC "-//W3C//DTD SVG 1.1//EN" "http://www.w3.org/Graphics/SVG/1.1/DTD/svg11.dtd"><svg class="icon" height="512" viewBox="0 0 1024 1024" version="1.1" xmlns="http://www.w3.org/2000/svg"><path d="M64.86124 883.806028c0 41.133839 33.316803 74.451666 74.451666 74.451666l744.514611 0c41.133839 0 74.451666-33.316803 74.451666-74.451666l-0.002047-204.741058c0-41.133839-33.316803-74.451666-74.451666-74.451666L660.471496 604.613304 660.471496 409.17717c0-25.686009-20.846794-46.532803-46.532803-46.532803-25.686009 0-46.530756 20.846794-46.530756 46.532803l0 195.435111L139.312906 604.612281c-41.133839 0-74.451666 33.316803-74.451666 74.451666L64.86124 883.806028 64.86124 883.806028zM157.924799 781.435499c0-25.686009 20.846794-46.532803 46.532803-46.532803s46.532803 20.846794 46.532803 46.532803c0 25.686009-20.846794 46.530756-46.532803 46.530756S157.924799 807.121508 157.924799 781.435499zM325.440024 781.435499c0-25.686009 20.846794-46.532803 46.532803-46.532803s46.532803 20.846794 46.532803 46.532803c0 25.686009-20.846794 46.530756-46.532803 46.530756S325.440024 807.121508 325.440024 781.435499L325.440024 781.435499zM613.94074 213.743082c-107.954711 0-195.435111 87.481424-195.435111 195.435111 0 25.686009 20.846794 46.532803 46.532803 46.532803 25.686009 0 46.532803-20.846794 46.532803-46.532803 0-56.583716 45.787836-102.371552 102.371552-102.371552 56.583716 0 102.371552 45.787836 102.371552 102.371552 0 25.686009 20.846794 46.532803 46.532803 46.532803 25.686009 0 46.532803-20.846794 46.532803-46.532803C809.375851 301.224506 721.894428 213.743082 613.94074 213.743082L613.94074 213.743082zM613.94074 64.840774c-190.224436 0-344.339466 154.114007-344.339466 344.337419 0 25.686009 20.846794 46.532803 46.532803 46.532803s46.532803-20.846794 46.532803-46.532803c0-138.851395 112.420419-251.27386 251.27386-251.27386s251.27386 112.422466 251.27386 251.27386c0 25.686009 20.846794 46.532803 46.532803 46.532803 25.686009 0 46.532803-20.846794 46.532803-46.532803C958.278159 218.954781 804.182572 64.840774 613.94074 64.840774L613.94074 64.840774z" /></svg>