<?xml version="1.0" standalone="no"?><!DOCTYPE svg PUBLIC "-//W3C//DTD SVG 1.1//EN" "http://www.w3.org/Graphics/SVG/1.1/DTD/svg11.dtd"><svg class="icon" height="512" viewBox="0 0 1024 1024" version="1.1" xmlns="http://www.w3.org/2000/svg"><path d="M450.816 621.952V233.3952a97.7664 97.7664 0 0 0-97.6384-97.6896 97.8688 97.8688 0 0 0-97.7152 97.6896v388.5568a151.168 151.168 0 0 0-53.4784 115.2 151.3472 151.3472 0 0 0 151.1936 151.1424 150.2208 150.2208 0 0 0 106.88-44.288 150.1696 150.1696 0 0 0 44.288-106.8544 151.1168 151.1168 0 0 0-53.5296-115.2z m-97.664 237.3888a122.4192 122.4192 0 0 1-122.2912-122.2144c0-41.0368 20.8128-78.5664 53.504-100.8896V233.3952a68.7872 68.7872 0 0 1 137.5488 0v402.8416a122.5216 122.5216 0 0 1 53.4784 100.8896 122.368 122.368 0 0 1-122.24 122.2144z m73.3696-122.1888a73.3696 73.3696 0 0 1-146.7136 0c0-33.6384 22.6304-61.9008 53.504-70.5536V409.344h39.7312v257.2544a73.3184 73.3184 0 0 1 53.4784 70.5536z m141.8496-521.6256a179.456 179.456 0 0 1 170.5728 110.5152 174.848 174.848 0 0 1 12.9792 55.3216l-43.2128-0.0256a134.016 134.016 0 0 0-9.4976-38.8608c-21.6832-52.2752-74.4192-85.6064-130.8672-83.9936l0.0256-42.9568z m-0.0256-127.3088l0.0256 43.0848c107.8784-1.664 206.6688 62.6176 248.0896 162.6368 11.52 27.7248 18.0992 57.0624 19.6352 87.5008l43.1104-0.0256a308.0448 308.0448 0 0 0-22.9632-104.0128c-48-115.84-162.8672-190.8992-287.8976-189.184z" /></svg>